<svg width="80" height="76" viewBox="0 0 80 76" fill="none" xmlns="http://www.w3.org/2000/svg">
<rect width="80" height="76" rx="6" fill="white"/>
<path d="M40 23.7921V45.9703V73L11.5 39.7327L5 3L40 23.7921Z" fill="url(#paint0_linear_41_118)"/>
<path d="M40 23.7921V45.9703V73L68.5 39.7327L75 3L40 23.7921Z" fill="url(#paint1_linear_41_118)"/>
<path d="M43.7365 34.6668V34.6668C42.3707 34.6668 41.2635 33.5596 41.2635 32.1938V30.9162C41.2635 29.8579 40.6978 29 40 29C39.3022 29 38.7365 29.8579 38.7365 30.9162V32.1938C38.7365 33.5596 37.6293 34.6668 36.2635 34.6668V34.6668C35.5657 34.6668 35 35.5248 35 36.583V56.417C35 57.4752 35.5657 58.3332 36.2635 58.3332V58.3332C37.6293 58.3332 38.7365 59.4404 38.7365 60.8062V62.0838C38.7365 63.1421 39.3022 64 40 64C40.6978 64 41.2635 63.1421 41.2635 62.0838V60.8062C41.2635 59.4404 42.3707 58.3332 43.7365 58.3332V58.3332C44.4343 58.3332 45 57.4752 45 56.417V36.583C45 35.5248 44.4343 34.6668 43.7365 34.6668ZM42.4731 52.0278C42.4731 53.3936 41.3658 54.5008 40 54.5008V54.5008C38.6342 54.5008 37.5269 53.3936 37.5269 52.0278V40.9722C37.5269 39.6064 38.6342 38.4992 40 38.4992V38.4992C41.3658 38.4992 42.4731 39.6064 42.4731 40.9722V52.0278Z" fill="url(#paint2_linear_41_118)"/>
<defs>
<linearGradient id="paint0_linear_41_118" x1="4.99945" y1="72.9996" x2="60.9997" y2="44.9994" gradientUnits="userSpaceOnUse">
<stop stop-color="#4300B1"/>
<stop offset="1" stop-color="#A531DC"/>
</linearGradient>
<linearGradient id="paint1_linear_41_118" x1="75.0005" y1="72.9996" x2="19.0003" y2="44.9994" gradientUnits="userSpaceOnUse">
<stop stop-color="#4300B1"/>
<stop offset="1" stop-color="#A531DC"/>
</linearGradient>
<linearGradient id="paint2_linear_41_118" x1="34.9998" y1="63.9998" x2="53.4905" y2="58.7167" gradientUnits="userSpaceOnUse">
<stop stop-color="#4300B1"/>
<stop offset="1" stop-color="#A531DC"/>
</linearGradient>
</defs>
</svg>
