<svg width="70" height="70" viewBox="0 0 70 70" fill="none" xmlns="http://www.w3.org/2000/svg">
<path d="M35 20.7921V42.9703V70L6.5 36.7327L0 0L35 20.7921Z" fill="url(#paint0_linear_41_118)"/>
<path d="M35 20.7921V42.9703V70L63.5 36.7327L70 0L35 20.7921Z" fill="url(#paint1_linear_41_118)"/>
<path d="M38.7365 31.6668V31.6668C37.3707 31.6668 36.2635 30.5596 36.2635 29.1938V27.9162C36.2635 26.8579 35.6978 26 35 26C34.3022 26 33.7365 26.8579 33.7365 27.9162V29.1938C33.7365 30.5596 32.6293 31.6668 31.2635 31.6668V31.6668C30.5657 31.6668 30 32.5248 30 33.583V53.417C30 54.4752 30.5657 55.3332 31.2635 55.3332V55.3332C32.6293 55.3332 33.7365 56.4404 33.7365 57.8062V59.0838C33.7365 60.1421 34.3022 61 35 61C35.6978 61 36.2635 60.1421 36.2635 59.0838V57.8062C36.2635 56.4404 37.3707 55.3332 38.7365 55.3332V55.3332C39.4343 55.3332 40 54.4752 40 53.417V33.583C40 32.5248 39.4343 31.6668 38.7365 31.6668ZM37.4731 49.0278C37.4731 50.3936 36.3658 51.5008 35 51.5008V51.5008C33.6342 51.5008 32.5269 50.3936 32.5269 49.0278V37.9722C32.5269 36.6064 33.6342 35.4992 35 35.4992V35.4992C36.3658 35.4992 37.4731 36.6064 37.4731 37.9722V49.0278Z" fill="url(#paint2_linear_41_118)"/>
<defs>
<linearGradient id="paint0_linear_41_118" x1="-0.000545055" y1="69.9996" x2="55.9997" y2="41.9994" gradientUnits="userSpaceOnUse">
<stop stop-color="#4300B1"/>
<stop offset="1" stop-color="#A531DC"/>
</linearGradient>
<linearGradient id="paint1_linear_41_118" x1="70.0005" y1="69.9996" x2="14.0003" y2="41.9994" gradientUnits="userSpaceOnUse">
<stop stop-color="#4300B1"/>
<stop offset="1" stop-color="#A531DC"/>
</linearGradient>
<linearGradient id="paint2_linear_41_118" x1="29.9998" y1="60.9998" x2="48.4905" y2="55.7167" gradientUnits="userSpaceOnUse">
<stop stop-color="#4300B1"/>
<stop offset="1" stop-color="#A531DC"/>
</linearGradient>
</defs>
</svg>
