<svg width="351" height="103" viewBox="0 0 351 103" fill="none" xmlns="http://www.w3.org/2000/svg">
<path d="M14.6575 2.88756C15.5643 0.64567 18.067 -0.521285 20.3672 0.225201C32.8476 4.27491 45.8405 16.7687 50.0399 28.9707C36.6554 24.5338 22.8083 30.9926 17.6047 44.0956C10.9576 33.0366 9.73741 15.0519 14.6575 2.88756Z" fill="url(#paint0_linear_40_55)"/>
<path d="M33.225 7.17981L11.7205 17.2075C11.2509 26.7609 13.2773 36.8956 17.6047 44.0954C22.8083 30.9924 36.6554 24.5336 50.0399 28.9705C47.3061 21.0271 40.8451 12.9606 33.225 7.17981Z" fill="url(#paint1_linear_40_55)"/>
<path d="M30.755 29.9552L16.99 0.435791C15.9634 0.914557 15.1111 1.76667 14.6577 2.88772C9.73742 15.0519 10.9576 33.0366 17.6047 44.0953C20.2065 37.5437 24.9696 32.6531 30.755 29.9552Z" fill="url(#paint2_linear_40_55)"/>
<path d="M23.5512 8.94801C21.8285 8.284 19.8917 9.18709 19.2931 10.9336C17.12 17.2739 17.8572 26.1034 21.1805 31.6324C23.9101 24.7595 31.1734 21.3716 38.1941 23.6988C36.0946 17.5983 29.8048 11.3587 23.5512 8.94801Z" fill="url(#paint3_linear_40_55)"/>
<path d="M23.5512 8.94801C21.8285 8.284 19.8917 9.18709 19.2931 10.9336C17.12 17.2739 17.8572 26.1034 21.1805 31.6324C23.9101 24.7595 31.1734 21.3716 38.1941 23.6988C36.0946 17.5983 29.8048 11.3587 23.5512 8.94801Z" fill="url(#paint4_linear_40_55)"/>
<path d="M23.5512 8.94801C21.8285 8.284 19.8917 9.18709 19.2931 10.9336C17.12 17.2739 17.8572 26.1034 21.1805 31.6324C23.9101 24.7595 31.1734 21.3716 38.1941 23.6988C36.0946 17.5983 29.8048 11.3587 23.5512 8.94801Z" fill="url(#paint5_linear_40_55)"/>
<path d="M89.3426 2.88754C88.4359 0.645651 85.9332 -0.521304 83.633 0.224978C71.1524 4.27489 58.1596 16.7687 53.9602 28.9707C67.3448 24.5338 81.1918 30.9926 86.3955 44.0956C93.0426 33.0366 94.2627 15.0519 89.3426 2.88754Z" fill="url(#paint6_linear_40_55)"/>
<path d="M70.7752 7.17981L92.2796 17.2075C92.7493 26.7609 90.7229 36.8956 86.3955 44.0954C81.1918 30.9924 67.3448 24.5336 53.9603 28.9705C56.6941 21.0271 63.1551 12.9606 70.7752 7.17981Z" fill="url(#paint7_linear_40_55)"/>
<path d="M73.2451 29.9552L87.0101 0.435852C88.0367 0.914618 88.889 1.76673 89.3424 2.88778C94.2625 15.0521 93.0423 33.0367 86.3953 44.0956C83.7936 37.5438 79.0306 32.6532 73.2451 29.9552Z" fill="url(#paint8_linear_40_55)"/>
<path d="M80.449 8.94801C82.1717 8.284 84.1085 9.18709 84.7071 10.9336C86.8801 17.2739 86.143 26.1034 82.8197 31.6324C80.0901 24.7595 72.8267 21.3716 65.8061 23.6988C67.9056 17.5983 74.1954 11.3587 80.449 8.94801Z" fill="url(#paint9_linear_40_55)"/>
<path d="M80.449 8.94801C82.1717 8.284 84.1085 9.18709 84.7071 10.9336C86.8801 17.2739 86.143 26.1034 82.8197 31.6324C80.0901 24.7595 72.8267 21.3716 65.8061 23.6988C67.9056 17.5983 74.1954 11.3587 80.449 8.94801Z" fill="url(#paint10_linear_40_55)"/>
<path d="M80.449 8.94801C82.1717 8.284 84.1085 9.18709 84.7071 10.9336C86.8801 17.2739 86.143 26.1034 82.8197 31.6324C80.0901 24.7595 72.8267 21.3716 65.8061 23.6988C67.9056 17.5983 74.1954 11.3587 80.449 8.94801Z" fill="url(#paint11_linear_40_55)"/>
<path d="M103.372 78.2974C100.78 89.8819 90.4547 98.9374 77.6026 98.9374H26.3975C13.5456 98.9374 3.22033 89.8819 0.628448 78.2974H0.63048C4.72813 66.9775 15.4771 59.4368 27.5159 59.4368H76.4842C88.5228 59.4368 99.272 66.9775 103.37 78.2974H103.372Z" fill="url(#paint12_linear_40_55)"/>
<path d="M103.372 78.2974C100.78 89.8819 90.4547 98.9374 77.6026 98.9374H26.3975C13.5456 98.9374 3.22033 89.8819 0.628448 78.2974H0.63048C4.72813 66.9775 15.4771 59.4368 27.5159 59.4368H76.4842C88.5228 59.4368 99.272 66.9775 103.37 78.2974H103.372Z" fill="url(#paint13_linear_40_55)"/>
<path d="M103.37 78.2974C99.272 66.9775 88.523 59.4368 76.4842 59.4368H53.0719V98.9374H77.6026C90.4545 98.9374 100.78 89.8819 103.372 78.2974H103.37Z" fill="url(#paint14_linear_40_55)"/>
<path d="M103.37 78.2974C99.272 66.9775 88.523 59.4368 76.4842 59.4368H53.0719V98.9374H77.6026C90.4545 98.9374 100.78 89.8819 103.372 78.2974H103.37Z" fill="url(#paint15_linear_40_55)"/>
<path d="M41.7601 70.888L52.0001 79.327L62.24 70.888C71.5728 63.1966 85.0471 63.1966 94.3799 70.888L103.37 78.2968C104.193 74.619 104.239 70.6871 103.336 66.7085L100.154 52.6892C95.4624 32.0204 77.0899 17.3506 55.8952 17.3506H48.1047C26.91 17.3506 8.53754 32.0204 3.84636 52.6894L0.664405 66.7087C-0.23869 70.6873 -0.192784 74.6192 0.630077 78.297L9.62 70.8882C18.953 63.1966 32.4273 63.1966 41.7601 70.888Z" fill="url(#paint16_linear_40_55)"/>
<path d="M100.154 52.6894C95.4624 32.0204 77.0899 17.3506 55.8952 17.3506H51.9803V79.311L51.9998 79.327L62.2398 70.888C71.5726 63.1966 85.0469 63.1966 94.3797 70.888L103.37 78.2968C104.193 74.619 104.238 70.6871 103.335 66.7085L100.154 52.6894Z" fill="url(#paint17_linear_40_55)"/>
<path d="M32.8216 72.6085C29.4631 72.6085 26.7408 69.886 26.7408 66.5275V63.4091C26.7408 60.0507 29.4633 57.3282 32.8216 57.3282C36.1799 57.3282 38.9026 60.0507 38.9026 63.4091V66.5275C38.9026 69.886 36.1801 72.6085 32.8216 72.6085Z" fill="url(#paint18_linear_40_55)"/>
<path d="M70.975 72.6085C67.6165 72.6085 64.8943 69.886 64.8943 66.5275V63.4091C64.8943 60.0507 67.6167 57.3282 70.975 57.3282C74.3335 57.3282 77.0558 60.0507 77.0558 63.4091V66.5275C77.056 69.886 74.3335 72.6085 70.975 72.6085Z" fill="url(#paint19_linear_40_55)"/>
<path d="M78.6877 84.7656C75.2693 73.0345 64.5173 64.9686 52.2985 64.9686H51.7017C39.4829 64.9686 28.7308 73.0347 25.3124 84.7656C23.9816 89.3326 25.2375 93.8282 28.1743 97.2633C32.5329 102.362 39.7484 103.96 45.9546 101.416L46.0272 101.386C49.8544 99.8165 54.1457 99.8165 57.9732 101.386L58.0459 101.416C64.252 103.96 71.4676 102.362 75.8263 97.2635C78.7626 93.8282 80.0186 89.3326 78.6877 84.7656Z" fill="url(#paint20_linear_40_55)"/>
<path d="M78.6877 84.7653C75.2693 73.0344 64.5172 64.9683 52.2984 64.9683H51.7017C50.4845 64.9683 49.2824 65.0496 48.1003 65.2054V100.702C51.3608 99.8681 54.8237 100.094 57.973 101.385L58.0457 101.415C64.2518 103.96 71.4674 102.361 75.826 97.263C78.7626 93.8282 80.0186 89.3324 78.6877 84.7653Z" fill="url(#paint21_linear_40_55)"/>
<path d="M25.3125 84.7655C23.9816 89.3326 25.2375 93.8282 28.1743 97.2632C32.533 102.361 39.7484 103.96 45.9547 101.415L46.0272 101.386C49.8545 99.8165 54.1459 99.8165 57.9732 101.386L58.0459 101.416C64.252 103.96 71.4676 102.362 75.8263 97.2634C78.7631 93.8284 80.0188 89.3328 78.6881 84.7657V84.7655C78.1856 83.041 77.5234 81.3963 76.7225 79.844H27.2781C26.4772 81.3961 25.815 83.0408 25.3125 84.7655Z" fill="url(#paint22_linear_40_55)"/>
<path d="M58.7507 75.5893L45.6501 83.0838L65.1368 102.57C69.1897 102.301 73.0765 100.48 75.8262 97.2634C76.5548 96.4113 77.1795 95.4935 77.6873 94.5261L58.7507 75.5893Z" fill="url(#paint23_linear_40_55)"/>
<path d="M56.1889 84.4048L57.401 83.7472C59.0753 82.8387 60.118 81.0867 60.118 79.1818V79.1008C60.118 76.232 57.7924 73.9064 54.9237 73.9064H49.0765C46.2078 73.9064 43.8822 76.232 43.8822 79.1008V79.1818C43.8822 81.0867 44.9248 82.8389 46.5992 83.7472L47.8112 84.4048C50.4238 85.8224 53.5763 85.8224 56.1889 84.4048Z" fill="url(#paint24_linear_40_55)"/>
<path d="M33.0251 52.405C37.1726 52.405 40.5349 50.5845 40.5349 48.3389C40.5349 46.0932 37.1726 44.2727 33.0251 44.2727C28.8776 44.2727 25.5154 46.0932 25.5154 48.3389C25.5154 50.5845 28.8776 52.405 33.0251 52.405Z" fill="url(#paint25_linear_40_55)"/>
<path d="M70.975 52.405C75.1225 52.405 78.4848 50.5845 78.4848 48.3389C78.4848 46.0932 75.1225 44.2727 70.975 44.2727C66.8275 44.2727 63.4653 46.0932 63.4653 48.3389C63.4653 50.5845 66.8275 52.405 70.975 52.405Z" fill="url(#paint26_linear_40_55)"/>
<path d="M132.758 78.2334C131.553 78.2334 130.483 77.9222 129.55 77.3C128.656 76.6778 128.228 75.7445 128.267 74.5C128.344 72.3222 128.5 69.9111 128.733 67.2667C129.006 64.6222 129.317 61.9389 129.667 59.2167C130.017 56.4556 130.367 53.8111 130.717 51.2834C131.106 48.7556 131.456 46.5 131.767 44.5167C131.067 44.4389 130.386 44.3806 129.725 44.3417C129.064 44.3028 128.461 44.2834 127.917 44.2834C126.283 44.2834 124.806 44.4389 123.483 44.75C122.2 45.0611 121.111 45.6056 120.217 46.3834C120.217 43.9334 120.411 41.95 120.8 40.4334C121.228 38.8778 121.986 37.75 123.075 37.05C124.203 36.35 125.836 36 127.975 36C129.531 36 131.261 36.1361 133.167 36.4084C135.111 36.6417 137.075 36.8945 139.058 37.1667C141.042 37.4389 142.889 37.575 144.6 37.575C146 37.575 147.244 37.4389 148.333 37.1667C149.461 36.8945 150.317 36.4084 150.9 35.7084C151.756 35.9806 152.417 36.5834 152.883 37.5167C153.35 38.4111 153.583 39.4028 153.583 40.4917C153.583 41.4639 153.369 42.4167 152.942 43.35C152.514 44.2445 151.833 45.0028 150.9 45.625C149.967 46.2084 148.703 46.5 147.108 46.5C146.369 46.5 145.456 46.4417 144.367 46.325C143.317 46.1695 142.189 46.0139 140.983 45.8584C140.556 48.1917 140.108 50.9917 139.642 54.2584C139.214 57.4861 138.844 60.9667 138.533 64.7C138.261 68.4334 138.086 72.225 138.008 76.075C137.308 76.8139 136.472 77.3584 135.5 77.7084C134.567 78.0584 133.653 78.2334 132.758 78.2334Z" fill="white"/>
<path d="M162.675 46.7917C161.119 46.7917 159.836 46.325 158.825 45.3917C157.852 44.4195 157.366 43.2139 157.366 41.775C157.366 40.2195 157.95 38.8778 159.116 37.75C160.283 36.6222 161.702 36.0584 163.375 36.0584C164.93 36.0584 166.194 36.5445 167.166 37.5167C168.177 38.4889 168.683 39.6945 168.683 41.1334C168.683 42.6889 168.1 44.0306 166.933 45.1584C165.766 46.2472 164.347 46.7917 162.675 46.7917ZM158.591 78.2334C157.075 78.2334 155.714 77.7084 154.508 76.6584C153.302 75.5695 152.7 73.8389 152.7 71.4667C152.7 70.1056 152.875 68.8417 153.225 67.675C153.614 66.4695 154.041 65.3028 154.508 64.175C155.014 63.0472 155.441 61.9584 155.791 60.9084C156.18 59.8195 156.375 58.75 156.375 57.7C156.375 56.7667 156.219 56.1056 155.908 55.7167C155.597 55.2889 155.227 55.075 154.8 55.075C154.139 55.075 153.497 55.5028 152.875 56.3584L152.466 56.125C152.622 54.5695 153.108 53.2472 153.925 52.1584C154.78 51.0306 155.811 50.1556 157.016 49.5334C158.261 48.9111 159.486 48.6 160.691 48.6C162.169 48.6 163.452 49.0861 164.541 50.0584C165.63 50.9917 166.175 52.5278 166.175 54.6667C166.175 55.95 165.98 57.3111 165.591 58.75C165.241 60.15 164.814 61.55 164.308 62.95C163.841 64.35 163.414 65.6528 163.025 66.8584C162.675 68.0639 162.5 69.0945 162.5 69.95C162.5 70.6889 162.636 71.2139 162.908 71.525C163.219 71.8361 163.55 71.9917 163.9 71.9917C164.25 71.9917 164.58 71.8945 164.891 71.7C165.241 71.4667 165.494 71.2139 165.65 70.9417L166.058 71.0584C166.058 72.4973 165.669 73.7611 164.891 74.85C164.152 75.9 163.219 76.7361 162.091 77.3584C160.964 77.9417 159.797 78.2334 158.591 78.2334Z" fill="white"/>
<path d="M177.332 78.175C175.893 78.175 174.59 77.6111 173.424 76.4834C172.257 75.3167 171.674 73.7028 171.674 71.6417C171.674 70.6306 171.81 69.4834 172.082 68.2C172.354 66.9167 172.646 65.6139 172.957 64.2917C173.307 62.9695 173.618 61.725 173.89 60.5584C174.162 59.3917 174.299 58.4389 174.299 57.7C174.299 56.9222 174.143 56.3195 173.832 55.8917C173.521 55.425 173.112 55.1917 172.607 55.1917C171.946 55.1917 171.226 55.5806 170.449 56.3584L170.099 56.125C170.06 55.5028 170.196 54.7639 170.507 53.9084C170.818 53.0528 171.285 52.2361 171.907 51.4584C172.568 50.6417 173.404 49.9611 174.415 49.4167C175.426 48.8722 176.632 48.6 178.032 48.6C180.093 48.6 181.61 49.2028 182.582 50.4084C183.593 51.575 184.099 53.0139 184.099 54.725C184.099 55.3472 184.04 55.95 183.924 56.5334C184.74 55.3278 185.751 54.1222 186.957 52.9167C188.162 51.6722 189.485 50.6417 190.924 49.825C192.401 49.0084 193.918 48.6 195.474 48.6C197.301 48.6 198.546 49.1834 199.207 50.35C199.868 51.5167 200.199 52.975 200.199 54.725C200.199 56.3584 200.024 58.1084 199.674 59.975C199.324 61.8417 198.974 63.65 198.624 65.4C198.274 67.1111 198.099 68.55 198.099 69.7167C198.099 71.2722 198.546 72.05 199.44 72.05C199.907 72.05 200.315 71.9139 200.665 71.6417C201.015 71.3306 201.249 71.0389 201.365 70.7667L201.774 70.9417C201.774 72.3806 201.365 73.6445 200.549 74.7334C199.771 75.8222 198.779 76.6778 197.574 77.3C196.368 77.8834 195.143 78.175 193.899 78.175C192.382 78.175 191.04 77.65 189.874 76.6C188.707 75.55 188.124 73.8389 188.124 71.4667C188.124 70.0667 188.299 68.55 188.649 66.9167C189.037 65.2834 189.407 63.7084 189.757 62.1917C190.107 60.675 190.282 59.4306 190.282 58.4584C190.282 57.875 190.165 57.4278 189.932 57.1167C189.737 56.7667 189.368 56.5917 188.824 56.5917C187.929 56.5917 186.937 57 185.849 57.8167C184.799 58.6334 183.885 59.7222 183.107 61.0834C182.368 62.4445 181.999 63.9417 181.999 65.575C181.999 66.625 182.115 67.6361 182.349 68.6084C182.621 69.5806 182.757 70.6306 182.757 71.7584C182.757 73.8584 182.212 75.4528 181.124 76.5417C180.035 77.6306 178.771 78.175 177.332 78.175Z" fill="white"/>
<path d="M214.949 78.35C212.344 78.35 210.185 77.9028 208.474 77.0084C206.802 76.1139 205.557 74.9667 204.741 73.5667C203.924 72.1667 203.516 70.7278 203.516 69.25C203.516 67.8111 203.866 66.45 204.566 65.1667C205.266 63.8445 206.257 62.7556 207.541 61.9C208.863 61.0445 210.419 60.6167 212.207 60.6167C212.169 60.9667 212.149 61.2972 212.149 61.6084C212.149 61.8806 212.149 62.0167 212.149 62.0167C212.149 64.6222 212.402 66.6834 212.907 68.2C213.413 69.6778 214.055 70.7472 214.832 71.4084C215.61 72.0306 216.407 72.3417 217.224 72.3417C218.469 72.3417 219.577 71.8556 220.549 70.8834C221.521 69.8722 222.007 68.7056 222.007 67.3834C222.007 65.9056 221.366 64.6028 220.082 63.475C218.838 62.3472 217.244 61.1028 215.299 59.7417C214.21 58.925 213.044 58.0111 211.799 57C210.594 55.95 209.563 54.725 208.707 53.325C207.852 51.8861 207.424 50.1945 207.424 48.25C207.424 46.2278 207.891 44.4389 208.824 42.8834C209.796 41.3278 211.06 40.025 212.616 38.975C214.21 37.8861 215.941 37.0695 217.807 36.525C219.713 35.9417 221.599 35.65 223.466 35.65C225.76 35.65 227.646 36.0195 229.124 36.7584C230.602 37.4972 231.71 38.45 232.449 39.6167C233.188 40.7834 233.557 41.9889 233.557 43.2334C233.557 44.4 233.227 45.5278 232.566 46.6167C231.944 47.6667 231.01 48.5222 229.766 49.1834C228.521 49.8445 226.985 50.175 225.157 50.175C225.274 49.6306 225.352 49.1445 225.391 48.7167C225.43 48.25 225.449 47.8417 225.449 47.4917C225.449 45.5472 225.021 44.1667 224.166 43.35C223.349 42.4945 222.435 42.0667 221.424 42.0667C220.452 42.0667 219.519 42.4361 218.624 43.175C217.73 43.875 217.282 45.0222 217.282 46.6167C217.282 47.9778 217.632 49.1445 218.332 50.1167C219.071 51.0889 220.005 51.9445 221.132 52.6834C222.299 53.4222 223.524 54.1417 224.807 54.8417C226.13 55.5417 227.394 56.3195 228.599 57.175C229.844 57.9917 230.874 58.9639 231.691 60.0917C232.507 61.2195 232.916 62.6389 232.916 64.35C232.916 66.1389 232.43 67.8889 231.457 69.6C230.485 71.2722 229.163 72.7695 227.491 74.0917C225.819 75.375 223.894 76.4056 221.716 77.1834C219.577 77.9611 217.321 78.35 214.949 78.35Z" fill="white"/>
<path d="M242.25 78.2334C240.578 78.2334 239.236 77.6695 238.225 76.5417C237.214 75.4139 236.708 73.8778 236.708 71.9334C236.708 70.8834 236.844 69.5222 237.117 67.85C237.389 66.1389 237.719 64.2722 238.108 62.25C238.536 60.1889 238.944 58.1084 239.333 56.0084C239.722 53.8695 240.053 51.8084 240.325 49.825C240.597 47.8417 240.733 46.0917 240.733 44.575C240.733 42.6695 240.481 41.2889 239.975 40.4334V40.0834C240.831 39.1111 241.764 38.3917 242.775 37.925C243.786 37.4584 244.778 37.225 245.75 37.225C247.228 37.225 248.492 37.75 249.542 38.8C250.592 39.85 251.117 41.425 251.117 43.525C251.117 44.6528 250.961 46.0334 250.65 47.6667C250.339 49.3 249.969 51.0111 249.542 52.8C249.114 54.5889 248.686 56.2611 248.258 57.8167C248.997 56.3778 249.969 54.9584 251.175 53.5584C252.419 52.1195 253.819 50.9334 255.375 50C256.969 49.0667 258.622 48.6 260.333 48.6C262.278 48.6 263.581 49.2028 264.242 50.4084C264.942 51.6139 265.292 53.1111 265.292 54.9C265.292 56.5334 265.117 58.2834 264.767 60.15C264.417 61.9778 264.067 63.7472 263.717 65.4584C263.367 67.1306 263.192 68.5306 263.192 69.6584C263.192 71.2917 263.678 72.1084 264.65 72.1084C265.078 72.1084 265.447 71.9917 265.758 71.7584C266.108 71.4861 266.361 71.1945 266.517 70.8834L266.925 71.175C266.925 72.6917 266.556 73.975 265.817 75.025C265.078 76.075 264.125 76.8723 262.958 77.4167C261.831 77.9611 260.664 78.2334 259.458 78.2334C257.864 78.2334 256.425 77.7084 255.142 76.6584C253.858 75.5695 253.217 73.8195 253.217 71.4084C253.217 70.0472 253.392 68.5695 253.742 66.975C254.131 65.3806 254.5 63.8445 254.85 62.3667C255.2 60.85 255.375 59.5861 255.375 58.575C255.375 57.2528 254.908 56.5917 253.975 56.5917C253.119 56.5917 252.186 57.0195 251.175 57.875C250.164 58.7306 249.269 59.8 248.492 61.0834C247.753 62.3667 247.267 63.6306 247.033 64.875C246.956 65.1861 246.917 65.5556 246.917 65.9834C246.917 66.9556 247.053 67.8889 247.325 68.7834C247.636 69.6778 247.792 70.7278 247.792 71.9334C247.792 73.7222 247.325 75.2195 246.392 76.425C245.458 77.6306 244.078 78.2334 242.25 78.2334Z" fill="white"/>
<path d="M280.993 46.7917C279.438 46.7917 278.154 46.325 277.143 45.3917C276.171 44.4195 275.685 43.2139 275.685 41.775C275.685 40.2195 276.268 38.8778 277.435 37.75C278.602 36.6222 280.021 36.0584 281.693 36.0584C283.249 36.0584 284.513 36.5445 285.485 37.5167C286.496 38.4889 287.002 39.6945 287.002 41.1334C287.002 42.6889 286.418 44.0306 285.252 45.1584C284.085 46.2472 282.666 46.7917 280.993 46.7917ZM276.91 78.2334C275.393 78.2334 274.032 77.7084 272.827 76.6584C271.621 75.5695 271.018 73.8389 271.018 71.4667C271.018 70.1056 271.193 68.8417 271.543 67.675C271.932 66.4695 272.36 65.3028 272.827 64.175C273.332 63.0472 273.76 61.9584 274.11 60.9084C274.499 59.8195 274.693 58.75 274.693 57.7C274.693 56.7667 274.538 56.1056 274.227 55.7167C273.916 55.2889 273.546 55.075 273.118 55.075C272.457 55.075 271.816 55.5028 271.193 56.3584L270.785 56.125C270.941 54.5695 271.427 53.2472 272.243 52.1584C273.099 51.0306 274.129 50.1556 275.335 49.5334C276.579 48.9111 277.804 48.6 279.01 48.6C280.488 48.6 281.771 49.0861 282.86 50.0584C283.949 50.9917 284.493 52.5278 284.493 54.6667C284.493 55.95 284.299 57.3111 283.91 58.75C283.56 60.15 283.132 61.55 282.627 62.95C282.16 64.35 281.732 65.6528 281.343 66.8584C280.993 68.0639 280.818 69.0945 280.818 69.95C280.818 70.6889 280.954 71.2139 281.227 71.525C281.538 71.8361 281.868 71.9917 282.218 71.9917C282.568 71.9917 282.899 71.8945 283.21 71.7C283.56 71.4667 283.813 71.2139 283.968 70.9417L284.377 71.0584C284.377 72.4973 283.988 73.7611 283.21 74.85C282.471 75.9 281.538 76.7361 280.41 77.3584C279.282 77.9417 278.116 78.2334 276.91 78.2334Z" fill="white"/>
<path d="M304.338 78.2334C302.783 78.2334 301.363 77.9028 300.08 77.2417C298.796 76.5417 297.746 75.5306 296.93 74.2084C296.891 74.9472 296.619 75.6278 296.113 76.25C295.608 76.8722 294.655 77.1834 293.255 77.1834C291.699 77.1834 290.552 76.7556 289.813 75.9C289.074 75.0445 288.705 73.9167 288.705 72.5167C288.705 71.6611 288.821 70.4361 289.055 68.8417C289.288 67.2084 289.56 65.3806 289.871 63.3584C290.221 61.3361 290.552 59.2361 290.863 57.0584C291.213 54.8806 291.505 52.7611 291.738 50.7C291.971 48.6389 292.088 46.7917 292.088 45.1584C292.088 44.0695 292.03 43.1167 291.913 42.3C291.796 41.4834 291.583 40.8417 291.271 40.375V40.025C292.166 39.0528 293.099 38.3334 294.071 37.8667C295.044 37.3611 295.977 37.1084 296.871 37.1084C298.194 37.1084 299.321 37.6334 300.255 38.6834C301.188 39.7334 301.655 41.4056 301.655 43.7C301.655 44.8278 301.538 46.4222 301.305 48.4834C301.071 50.5056 300.78 52.5278 300.43 54.55C301.83 52.5667 303.308 51.05 304.863 50C306.458 48.95 307.994 48.425 309.471 48.425C311.455 48.425 313.146 49.3778 314.546 51.2834C315.946 53.15 316.646 55.9889 316.646 59.8C316.646 62.0556 316.374 64.2917 315.83 66.5084C315.324 68.6861 314.546 70.6695 313.496 72.4584C312.446 74.2084 311.144 75.6084 309.588 76.6584C308.071 77.7084 306.321 78.2334 304.338 78.2334ZM301.421 72.3417C302.666 72.3417 303.716 71.7972 304.571 70.7084C305.466 69.6195 306.127 68.2389 306.555 66.5667C307.021 64.8556 307.255 63.1056 307.255 61.3167C307.255 60.15 307.158 59.0417 306.963 57.9917C306.769 56.9028 306.477 56.0278 306.088 55.3667C305.699 54.6667 305.194 54.3167 304.571 54.3167C303.483 54.3167 302.238 55.6 300.838 58.1667C299.477 60.6945 298.408 64.2917 297.63 68.9584C298.33 71.2139 299.594 72.3417 301.421 72.3417Z" fill="white"/>
<path d="M341.447 78.2917C340.086 78.2917 338.9 77.8445 337.889 76.95C336.878 76.0556 336.372 74.5972 336.372 72.575C336.372 72.3806 336.372 72.1861 336.372 71.9917C336.372 71.7972 336.392 71.6028 336.431 71.4084C335.264 73.7417 333.942 75.4722 332.464 76.6C331.025 77.6889 329.567 78.2334 328.089 78.2334C326.728 78.2334 325.444 77.7667 324.239 76.8334C323.033 75.8611 322.061 74.4417 321.322 72.575C320.583 70.7084 320.214 68.4528 320.214 65.8084C320.214 63.0861 320.583 60.6556 321.322 58.5167C322.1 56.3778 323.111 54.5695 324.356 53.0917C325.6 51.6139 326.961 50.5056 328.439 49.7667C329.917 48.9889 331.356 48.6 332.756 48.6C334.311 48.6 335.711 49.0861 336.956 50.0584C338.2 50.9917 339.056 52.4889 339.522 54.55C339.639 53.8889 339.717 53.2861 339.756 52.7417C339.833 52.1972 339.872 51.8278 339.872 51.6334C339.911 50.5834 340.436 49.8056 341.447 49.3C342.497 48.7945 343.644 48.5417 344.889 48.5417C345.978 48.5417 347.008 48.7556 347.981 49.1834C348.953 49.6111 349.614 50.3306 349.964 51.3417L350.081 51.6917C349.614 52.7417 349.147 54.0056 348.681 55.4834C348.214 56.9611 347.786 58.5167 347.397 60.15C347.008 61.7445 346.697 63.3195 346.464 64.875C346.231 66.3917 346.114 67.7334 346.114 68.9C346.114 70.1834 346.25 71.0778 346.522 71.5834C346.794 72.05 347.125 72.2834 347.514 72.2834C348.175 72.2834 348.778 71.8167 349.322 70.8834L349.789 71.1167C349.789 72.4389 349.361 73.6445 348.506 74.7334C347.65 75.8222 346.581 76.6972 345.297 77.3584C344.014 77.9806 342.731 78.2917 341.447 78.2917ZM331.939 70.8834C332.95 70.8834 334.058 69.9889 335.264 68.2C336.508 66.3722 337.578 63.7667 338.472 60.3834C338.55 60.0334 338.628 59.7028 338.706 59.3917C338.783 59.0417 338.842 58.7111 338.881 58.4C338.258 56.9611 337.597 55.95 336.897 55.3667C336.236 54.7445 335.575 54.4334 334.914 54.4334C333.942 54.4334 333.028 54.9584 332.172 56.0084C331.356 57.0195 330.675 58.3028 330.131 59.8584C329.625 61.4139 329.372 62.9695 329.372 64.525C329.372 66.6639 329.606 68.2584 330.072 69.3084C330.578 70.3584 331.2 70.8834 331.939 70.8834Z" fill="white"/>
<defs>
<linearGradient id="paint0_linear_40_55" x1="28.1354" y1="6.80978" x2="32.3973" y2="37.3731" gradientUnits="userSpaceOnUse">
<stop stop-color="#FFBF51"/>
<stop offset="1" stop-color="#C5715A"/>
</linearGradient>
<linearGradient id="paint1_linear_40_55" x1="27.3972" y1="22.441" x2="31.0103" y2="30.3836" gradientUnits="userSpaceOnUse">
<stop stop-color="#883F2E" stop-opacity="0"/>
<stop offset="0.2979" stop-color="#8B402E" stop-opacity="0.298"/>
<stop offset="0.536" stop-color="#954430" stop-opacity="0.536"/>
<stop offset="0.7533" stop-color="#A64B34" stop-opacity="0.753"/>
<stop offset="0.9572" stop-color="#BE5539" stop-opacity="0.957"/>
<stop offset="1" stop-color="#C4573A"/>
</linearGradient>
<linearGradient id="paint2_linear_40_55" x1="16.0005" y1="22.597" x2="10.0865" y2="24.0718" gradientUnits="userSpaceOnUse">
<stop stop-color="#883F2E" stop-opacity="0"/>
<stop offset="0.2979" stop-color="#8B402E" stop-opacity="0.298"/>
<stop offset="0.536" stop-color="#954430" stop-opacity="0.536"/>
<stop offset="0.7533" stop-color="#A64B34" stop-opacity="0.753"/>
<stop offset="0.9572" stop-color="#BE5539" stop-opacity="0.957"/>
<stop offset="1" stop-color="#C4573A"/>
</linearGradient>
<linearGradient id="paint3_linear_40_55" x1="29.4937" y1="15.0671" x2="24.3002" y2="31.0603" gradientUnits="userSpaceOnUse">
<stop stop-color="#FFDFCF"/>
<stop offset="1" stop-color="#FD8087"/>
</linearGradient>
<linearGradient id="paint4_linear_40_55" x1="26.5305" y1="19.2881" x2="30.1233" y2="29.3491" gradientUnits="userSpaceOnUse">
<stop stop-color="#FD4755" stop-opacity="0"/>
<stop offset="0.2593" stop-color="#F74452" stop-opacity="0.259"/>
<stop offset="0.6276" stop-color="#E43B4C" stop-opacity="0.628"/>
<stop offset="1" stop-color="#CA2E43"/>
</linearGradient>
<linearGradient id="paint5_linear_40_55" x1="28.3532" y1="17.5842" x2="33.4145" y2="11.9222" gradientUnits="userSpaceOnUse">
<stop stop-color="#FD4755" stop-opacity="0"/>
<stop offset="0.2593" stop-color="#F74452" stop-opacity="0.259"/>
<stop offset="0.6276" stop-color="#E43B4C" stop-opacity="0.628"/>
<stop offset="1" stop-color="#CA2E43"/>
</linearGradient>
<linearGradient id="paint6_linear_40_55" x1="75.8422" y1="6.79988" x2="71.5803" y2="37.3632" gradientUnits="userSpaceOnUse">
<stop stop-color="#FFBF51"/>
<stop offset="1" stop-color="#C5715A"/>
</linearGradient>
<linearGradient id="paint7_linear_40_55" x1="76.5805" y1="22.4312" x2="72.9672" y2="30.3738" gradientUnits="userSpaceOnUse">
<stop stop-color="#883F2E" stop-opacity="0"/>
<stop offset="0.2979" stop-color="#8B402E" stop-opacity="0.298"/>
<stop offset="0.536" stop-color="#954430" stop-opacity="0.536"/>
<stop offset="0.7533" stop-color="#A64B34" stop-opacity="0.753"/>
<stop offset="0.9572" stop-color="#BE5539" stop-opacity="0.957"/>
<stop offset="1" stop-color="#C4573A"/>
</linearGradient>
<linearGradient id="paint8_linear_40_55" x1="87.9771" y1="22.5871" x2="93.8911" y2="24.062" gradientUnits="userSpaceOnUse">
<stop stop-color="#883F2E" stop-opacity="0"/>
<stop offset="0.2979" stop-color="#8B402E" stop-opacity="0.298"/>
<stop offset="0.536" stop-color="#954430" stop-opacity="0.536"/>
<stop offset="0.7533" stop-color="#A64B34" stop-opacity="0.753"/>
<stop offset="0.9572" stop-color="#BE5539" stop-opacity="0.957"/>
<stop offset="1" stop-color="#C4573A"/>
</linearGradient>
<linearGradient id="paint9_linear_40_55" x1="74.4839" y1="15.0572" x2="79.6775" y2="31.0504" gradientUnits="userSpaceOnUse">
<stop stop-color="#FFDFCF"/>
<stop offset="1" stop-color="#FD8087"/>
</linearGradient>
<linearGradient id="paint10_linear_40_55" x1="77.4471" y1="19.2783" x2="73.8543" y2="29.3392" gradientUnits="userSpaceOnUse">
<stop stop-color="#FD4755" stop-opacity="0"/>
<stop offset="0.2593" stop-color="#F74452" stop-opacity="0.259"/>
<stop offset="0.6276" stop-color="#E43B4C" stop-opacity="0.628"/>
<stop offset="1" stop-color="#CA2E43"/>
</linearGradient>
<linearGradient id="paint11_linear_40_55" x1="75.6243" y1="17.5741" x2="70.5631" y2="11.9123" gradientUnits="userSpaceOnUse">
<stop stop-color="#FD4755" stop-opacity="0"/>
<stop offset="0.2593" stop-color="#F74452" stop-opacity="0.259"/>
<stop offset="0.6276" stop-color="#E43B4C" stop-opacity="0.628"/>
<stop offset="1" stop-color="#CA2E43"/>
</linearGradient>
<linearGradient id="paint12_linear_40_55" x1="49.5819" y1="64.8024" x2="56.3153" y2="102.379" gradientUnits="userSpaceOnUse">
<stop stop-color="#FFFAF8"/>
<stop offset="1" stop-color="#FFDFCF"/>
</linearGradient>
<linearGradient id="paint13_linear_40_55" x1="52.0001" y1="83.8023" x2="52.0001" y2="104.746" gradientUnits="userSpaceOnUse">
<stop stop-color="#F89580" stop-opacity="0"/>
<stop offset="0.2599" stop-color="#F2917C" stop-opacity="0.261"/>
<stop offset="0.5954" stop-color="#E2856F" stop-opacity="0.597"/>
<stop offset="0.9709" stop-color="#C8725B" stop-opacity="0.974"/>
<stop offset="0.9972" stop-color="#C5715A"/>
</linearGradient>
<linearGradient id="paint14_linear_40_55" x1="82.2416" y1="88.0653" x2="99.1838" y2="99.5772" gradientUnits="userSpaceOnUse">
<stop stop-color="#F89580" stop-opacity="0"/>
<stop offset="0.2599" stop-color="#F2917C" stop-opacity="0.261"/>
<stop offset="0.5954" stop-color="#E2856F" stop-opacity="0.597"/>
<stop offset="0.9709" stop-color="#C8725B" stop-opacity="0.974"/>
<stop offset="0.9972" stop-color="#C5715A"/>
</linearGradient>
<linearGradient id="paint15_linear_40_55" x1="81.8186" y1="74.3117" x2="64.659" y2="80.1763" gradientUnits="userSpaceOnUse">
<stop stop-color="#F89580" stop-opacity="0"/>
<stop offset="0.2599" stop-color="#F2917C" stop-opacity="0.261"/>
<stop offset="0.5954" stop-color="#E2856F" stop-opacity="0.597"/>
<stop offset="0.9709" stop-color="#C8725B" stop-opacity="0.974"/>
<stop offset="0.9972" stop-color="#C5715A"/>
</linearGradient>
<linearGradient id="paint16_linear_40_55" x1="22.4297" y1="41.5971" x2="89.7643" y2="77.8708" gradientUnits="userSpaceOnUse">
<stop stop-color="#FFBF51"/>
<stop offset="1" stop-color="#C5715A"/>
</linearGradient>
<linearGradient id="paint17_linear_40_55" x1="66.4664" y1="51.8495" x2="97.31" y2="40.7718" gradientUnits="userSpaceOnUse">
<stop stop-color="#883F2E" stop-opacity="0"/>
<stop offset="0.2979" stop-color="#8B402E" stop-opacity="0.298"/>
<stop offset="0.536" stop-color="#954430" stop-opacity="0.536"/>
<stop offset="0.7533" stop-color="#A64B34" stop-opacity="0.753"/>
<stop offset="0.9572" stop-color="#BE5539" stop-opacity="0.957"/>
<stop offset="1" stop-color="#C4573A"/>
</linearGradient>
<linearGradient id="paint18_linear_40_55" x1="28.8558" y1="62.049" x2="37.2985" y2="68.2638" gradientUnits="userSpaceOnUse">
<stop stop-color="#5A5A5A"/>
<stop offset="1" stop-color="#444444"/>
</linearGradient>
<linearGradient id="paint19_linear_40_55" x1="66.5973" y1="61.6852" x2="74.1019" y2="67.3136" gradientUnits="userSpaceOnUse">
<stop stop-color="#5A5A5A"/>
<stop offset="1" stop-color="#444444"/>
</linearGradient>
<linearGradient id="paint20_linear_40_55" x1="45.1141" y1="75.3576" x2="58.3861" y2="99.86" gradientUnits="userSpaceOnUse">
<stop stop-color="#FFFAF8"/>
<stop offset="1" stop-color="#FFDFCF"/>
</linearGradient>
<linearGradient id="paint21_linear_40_55" x1="64.4065" y1="83.563" x2="84.2931" y2="82.8872" gradientUnits="userSpaceOnUse">
<stop stop-color="#F89580" stop-opacity="0"/>
<stop offset="0.2599" stop-color="#F2917C" stop-opacity="0.261"/>
<stop offset="0.5954" stop-color="#E2856F" stop-opacity="0.597"/>
<stop offset="0.9709" stop-color="#C8725B" stop-opacity="0.974"/>
<stop offset="0.9972" stop-color="#C5715A"/>
</linearGradient>
<linearGradient id="paint22_linear_40_55" x1="52.0001" y1="92.2976" x2="52.0001" y2="104.947" gradientUnits="userSpaceOnUse">
<stop stop-color="#F89580" stop-opacity="0"/>
<stop offset="0.2599" stop-color="#F2917C" stop-opacity="0.261"/>
<stop offset="0.5954" stop-color="#E2856F" stop-opacity="0.597"/>
<stop offset="0.9709" stop-color="#C8725B" stop-opacity="0.974"/>
<stop offset="0.9972" stop-color="#C5715A"/>
</linearGradient>
<linearGradient id="paint23_linear_40_55" x1="62.0044" y1="89.3681" x2="50.7821" y2="70.5435" gradientUnits="userSpaceOnUse">
<stop stop-color="#F89580" stop-opacity="0"/>
<stop offset="0.2599" stop-color="#F2917C" stop-opacity="0.261"/>
<stop offset="0.5954" stop-color="#E2856F" stop-opacity="0.597"/>
<stop offset="0.9709" stop-color="#C8725B" stop-opacity="0.974"/>
<stop offset="0.9972" stop-color="#C5715A"/>
</linearGradient>
<linearGradient id="paint24_linear_40_55" x1="50.4391" y1="76.0177" x2="53.7179" y2="82.5756" gradientUnits="userSpaceOnUse">
<stop stop-color="#5A5A5A"/>
<stop offset="1" stop-color="#444444"/>
</linearGradient>
<linearGradient id="paint25_linear_40_55" x1="29.3861" y1="45.1614" x2="37.6123" y2="52.3443" gradientUnits="userSpaceOnUse">
<stop stop-color="#FFFAF8"/>
<stop offset="1" stop-color="#FFDFCF"/>
</linearGradient>
<linearGradient id="paint26_linear_40_55" x1="67.3362" y1="45.1614" x2="75.5622" y2="52.3443" gradientUnits="userSpaceOnUse">
<stop stop-color="#FFFAF8"/>
<stop offset="1" stop-color="#FFDFCF"/>
</linearGradient>
</defs>
</svg>
